<svg width="416" height="448" viewBox="0 0 416 448" fill="none" xmlns="http://www.w3.org/2000/svg">
<g opacity="0.5">
<rect x="180.543" y="0.0223115" width="270.73" height="360.974" rx="24.3901" transform="rotate(30 180.543 0.0223115)" fill="#454444"/>
<rect x="111.542" y="175.633" width="149.999" height="14.6341" rx="7.31704" transform="rotate(30 111.542 175.633)" fill="#3D3D3D"/>
<path d="M17.7391 282.007L252.199 417.372L246.711 426.877C239.976 438.543 225.059 442.54 213.393 435.805L21.1787 324.83C9.51312 318.095 5.51617 303.178 12.2513 291.512L17.7391 282.007Z" fill="url(#paint0_linear_1_65)"/>
<rect x="96.9077" y="200.98" width="96.341" height="14.6341" rx="7.31704" transform="rotate(30 96.9077 200.98)" fill="#3D3D3D"/>
<circle cx="151.343" cy="154.256" r="23.7804" transform="rotate(30 151.343 154.256)" fill="#3D3D3D"/>
<rect x="211.171" y="17.7051" width="71.9509" height="8.53654" transform="rotate(30 211.171 17.7051)" fill="url(#paint1_linear_1_65)"/>
<path d="M208.603 70.9177L208.109 71.773L216.234 76.464L215.061 78.4953L204.263 72.2612L208.214 65.419L218.99 71.6408L217.817 73.672L209.714 68.9934L209.22 69.8486L215.848 73.6755L215.231 74.7446L208.603 70.9177ZM219.542 71.9596L230.661 78.3788L229.488 80.4101L218.37 73.9908L219.542 71.9596ZM222.673 76.2899L225.345 77.833L222.488 82.7829L219.815 81.2398L222.673 76.2899ZM232.222 82.4303L239.748 86.7757L238.576 88.807L231.049 84.4616L232.222 82.4303ZM240.813 84.2402L243.486 85.7833L239.535 92.6255L236.863 91.0824L240.813 84.2402ZM231.298 78.7468L233.971 80.2899L230.021 87.132L227.348 85.5889L231.298 78.7468ZM201.056 85.4206L201.179 76.3687L204.194 78.1093L203.75 86.3345L202.722 85.7695L209.433 81.1338L212.661 82.9978L212.002 91.1271L210.999 90.5193L217.9 86.0223L220.872 87.7382L213.137 92.3954L209.523 90.3091L209.9 82.8431L210.947 83.448L204.67 87.5069L201.056 85.4206ZM222.94 98.3404C221.386 97.4434 220.214 96.5858 219.422 95.7676C218.635 94.9424 218.178 94.137 218.052 93.3514C217.937 92.5629 218.11 91.7695 218.571 90.9712C219.032 90.173 219.63 89.63 220.367 89.3424C221.114 89.0517 222.04 89.0446 223.144 89.321C224.253 89.5904 225.584 90.1735 227.137 91.0706C228.691 91.9677 229.862 92.8288 230.649 93.6541C231.441 94.4722 231.894 95.2755 232.009 96.0641C232.135 96.8496 231.968 97.6415 231.507 98.4398C231.046 99.2381 230.442 99.7825 229.694 100.073C228.958 100.361 228.036 100.37 226.927 100.101C225.823 99.8242 224.494 99.2375 222.94 98.3404ZM224.113 96.3091C224.847 96.733 225.506 97.0564 226.09 97.2795C226.678 97.4955 227.184 97.5738 227.608 97.5144C228.036 97.448 228.373 97.2009 228.62 96.7733C228.867 96.3456 228.91 95.9334 228.75 95.5366C228.593 95.1327 228.273 94.7337 227.787 94.3395C227.306 93.9383 226.699 93.5257 225.965 93.1019C225.231 92.678 224.559 92.352 223.949 92.1237C223.351 91.8923 222.827 91.8037 222.378 91.8579C221.94 91.909 221.597 92.1484 221.35 92.576C221.104 93.0037 221.065 93.4236 221.236 93.8357C221.418 94.2448 221.757 94.6541 222.252 95.0636C222.759 95.4701 223.379 95.8853 224.113 96.3091ZM230.495 102.417L234.445 95.5747L242.709 100.346C243.358 100.72 243.895 101.131 244.322 101.577C244.76 102.02 245.03 102.498 245.132 103.013C245.241 103.532 245.124 104.088 244.783 104.679C244.557 105.071 244.298 105.354 244.007 105.529C243.717 105.703 243.406 105.789 243.074 105.788C242.742 105.786 242.397 105.725 242.039 105.604C241.682 105.483 241.324 105.329 240.967 105.142L240.273 104.541C241.117 105.038 241.748 105.45 242.167 105.778C242.594 106.109 242.846 106.412 242.926 106.686C243.016 106.957 242.971 107.249 242.79 107.563L241.945 109.028L239.272 107.484L239.932 106.34C240.056 106.127 240.106 105.942 240.082 105.785C240.069 105.626 239.936 105.445 239.683 105.242C239.437 105.042 239.029 104.778 238.459 104.449L234.278 102.036L233.167 103.96L230.495 102.417ZM235.309 100.25L240.901 103.478C241.114 103.602 241.313 103.669 241.497 103.68C241.688 103.695 241.841 103.603 241.956 103.403C242.063 103.218 242.06 103.05 241.947 102.9C241.846 102.746 241.688 102.608 241.475 102.484L235.883 99.256L235.309 100.25ZM249.866 104.478L247.088 109.289L253.321 112.887L252.148 114.919L243.243 109.777L247.193 102.935L249.866 104.478ZM264.548 112.955C265.51 113.51 266.252 114.062 266.772 114.609C267.292 115.157 267.638 115.694 267.809 116.22C267.98 116.747 268.018 117.258 267.922 117.753C267.837 118.246 267.665 118.717 267.405 119.166C267.146 119.615 266.815 119.999 266.413 120.317C266.014 120.629 265.533 120.836 264.97 120.939C264.415 121.046 263.773 121.013 263.046 120.84C262.326 120.671 261.51 120.324 260.598 119.797L252.9 115.353L256.851 108.511L264.548 112.955ZM256.808 114.758L261.725 117.597C262.125 117.828 262.478 117.998 262.784 118.109C263.095 118.212 263.363 118.258 263.589 118.245C263.822 118.237 264.019 118.175 264.181 118.06C264.354 117.941 264.502 117.775 264.626 117.561C264.749 117.347 264.817 117.139 264.829 116.937C264.852 116.732 264.809 116.527 264.7 116.321C264.598 116.119 264.422 115.914 264.173 115.703C263.928 115.486 263.606 115.262 263.207 115.031L258.289 112.192L256.808 114.758Z" fill="url(#paint2_linear_1_65)"/>
<path d="M203.003 64.1215L189.485 67.4815L193.692 80.248" stroke="url(#paint3_linear_1_65)" stroke-width="4.29723"/>
</g>
<defs>
<linearGradient id="paint0_linear_1_65" x1="8.96154" y1="297.21" x2="243.421" y2="432.576" gradientUnits="userSpaceOnUse">
<stop stop-color="#E8964B"/>
<stop offset="1" stop-color="#E77F44"/>
</linearGradient>
<linearGradient id="paint1_linear_1_65" x1="211.171" y1="21.9426" x2="283.122" y2="21.9426" gradientUnits="userSpaceOnUse">
<stop stop-color="#E8964B"/>
<stop offset="1" stop-color="#E77F44"/>
</linearGradient>
<linearGradient id="paint2_linear_1_65" x1="202.062" y1="74.3458" x2="271.344" y2="114.346" gradientUnits="userSpaceOnUse">
<stop stop-color="#E8964B"/>
<stop offset="1" stop-color="#E77F44"/>
</linearGradient>
<linearGradient id="paint3_linear_1_65" x1="189.698" y1="67.1131" x2="198.381" y2="72.1265" gradientUnits="userSpaceOnUse">
<stop stop-color="#E8964B"/>
<stop offset="1" stop-color="#E77F44"/>
</linearGradient>
</defs>
</svg>
