<svg width="818" height="507" viewBox="0 0 818 507" fill="none" xmlns="http://www.w3.org/2000/svg">
<!-- <g opacity="0.5"> -->
<rect x="0.72995" y="187.01" width="270.73" height="360.974" rx="24.3901" transform="rotate(-30 0.72995 187.01)" fill="#454444"/>
<rect x="118.313" y="334.572" width="149.999" height="14.6341" rx="7.31704" transform="rotate(-30 118.313 334.572)" fill="#3D3D3D"/>
<path d="M163.534 468.995L397.994 333.629L403.481 343.135C410.216 354.8 406.22 369.717 394.554 376.452L202.339 487.427C190.674 494.162 175.757 490.165 169.022 478.5L163.534 468.995Z" fill="url(#paint0_linear_17_2)"/>
<rect x="132.947" y="359.919" width="96.341" height="14.6341" rx="7.31704" transform="rotate(-30 132.947 359.919)" fill="#3D3D3D"/>
<path d="M76.43 208.896L76.9238 209.751L85.0489 205.06L86.2216 207.092L75.4238 213.326L71.4735 206.484L82.2499 200.262L83.4226 202.293L75.319 206.972L75.8127 207.827L82.4411 204L83.0583 205.069L76.43 208.896ZM82.8021 199.943L93.9206 193.524L95.0933 195.555L83.9748 201.974L82.8021 199.943ZM88.1175 199.397L90.7902 197.854L93.648 202.804L90.9753 204.347L88.1175 199.397ZM98.2098 194.198L105.736 189.852L106.909 191.884L99.3826 196.229L98.2098 194.198ZM104.073 187.662L106.745 186.119L110.696 192.962L108.023 194.505L104.073 187.662ZM94.5579 193.156L97.2306 191.613L101.181 198.455L98.5082 199.998L94.5579 193.156ZM85.2166 222.683L77.4389 218.051L80.4538 216.31L87.355 220.807L86.3517 221.415L85.6923 213.286L88.921 211.421L95.6314 216.057L94.6034 216.622L94.1595 208.397L97.1316 206.681L97.2973 215.708L93.6838 217.795L87.4062 213.736L88.4539 213.131L88.8301 220.597L85.2166 222.683ZM107.347 210.191C105.794 211.088 104.465 211.675 103.36 211.951C102.252 212.22 101.326 212.213 100.583 211.93C99.8424 211.635 99.2418 211.089 98.7809 210.29C98.32 209.492 98.1491 208.702 98.2681 207.921C98.3901 207.128 98.8469 206.323 99.6385 205.505C100.426 204.679 101.597 203.818 103.15 202.921C104.704 202.024 106.035 201.441 107.143 201.172C108.248 200.895 109.17 200.904 109.91 201.199C110.654 201.483 111.256 202.023 111.717 202.822C112.178 203.62 112.347 204.415 112.225 205.208C112.106 205.99 111.653 206.793 110.865 207.618C110.074 208.436 108.901 209.294 107.347 210.191ZM106.175 208.16C106.909 207.736 107.518 207.327 108.004 206.933C108.485 206.531 108.805 206.132 108.966 205.736C109.122 205.332 109.077 204.916 108.83 204.488C108.583 204.061 108.248 203.817 107.824 203.758C107.396 203.691 106.89 203.77 106.306 203.993C105.718 204.209 105.057 204.529 104.323 204.952C103.589 205.376 102.971 205.795 102.468 206.209C101.969 206.611 101.63 207.02 101.452 207.436C101.278 207.842 101.314 208.258 101.561 208.685C101.807 209.113 102.152 209.356 102.594 209.414C103.04 209.461 103.563 209.373 104.166 209.149C104.771 208.913 105.441 208.583 106.175 208.16ZM114.655 205.687L110.705 198.845L118.969 194.073C119.617 193.699 120.241 193.438 120.841 193.292C121.444 193.134 121.993 193.14 122.49 193.309C122.994 193.474 123.417 193.852 123.758 194.444C123.985 194.836 124.101 195.201 124.106 195.54C124.112 195.879 124.031 196.192 123.864 196.479C123.697 196.765 123.471 197.033 123.188 197.282C122.904 197.532 122.592 197.764 122.251 197.98L121.384 198.281C122.236 197.799 122.909 197.458 123.402 197.258C123.902 197.055 124.291 196.988 124.568 197.056C124.848 197.113 125.078 197.298 125.259 197.612L126.105 199.076L123.432 200.619L122.772 199.475C122.648 199.262 122.513 199.126 122.366 199.068C122.222 199 121.998 199.024 121.695 199.142C121.4 199.255 120.967 199.477 120.397 199.806L116.217 202.219L117.328 204.144L114.655 205.687ZM115.186 200.434L120.777 197.206C120.991 197.082 121.149 196.944 121.25 196.79C121.359 196.633 121.355 196.454 121.24 196.254C121.133 196.069 120.986 195.988 120.8 196.01C120.616 196.021 120.417 196.088 120.203 196.212L114.612 199.44L115.186 200.434ZM126.125 189.941L128.903 194.752L135.136 191.154L136.309 193.185L127.403 198.327L123.453 191.485L126.125 189.941ZM140.808 181.465C141.77 180.909 142.618 180.543 143.352 180.366C144.087 180.189 144.725 180.158 145.266 180.273C145.808 180.388 146.269 180.611 146.65 180.942C147.034 181.262 147.356 181.647 147.615 182.096C147.875 182.545 148.042 183.023 148.116 183.531C148.187 184.032 148.126 184.552 147.933 185.091C147.748 185.626 147.399 186.165 146.886 186.708C146.38 187.247 145.671 187.78 144.758 188.307L137.061 192.751L133.11 185.909L140.808 181.465ZM138.499 189.07L143.417 186.23C143.816 186 144.14 185.779 144.389 185.569C144.634 185.352 144.808 185.142 144.91 184.94C145.019 184.735 145.065 184.533 145.045 184.335C145.029 184.126 144.959 183.914 144.836 183.701C144.712 183.487 144.566 183.324 144.397 183.212C144.231 183.09 144.032 183.024 143.799 183.016C143.573 183.004 143.307 183.053 143.001 183.164C142.69 183.267 142.335 183.434 141.935 183.664L137.018 186.504L138.499 189.07Z" fill="url(#paint1_linear_17_2)"/>
<path d="M67.7444 210.348L63.8953 223.734L77.0551 226.474" stroke="url(#paint2_linear_17_2)" stroke-width="4.29723"/>
<circle cx="119.7" cy="289.414" r="23.7804" transform="rotate(-30 119.7 289.414)" fill="#3D3D3D"/>
<rect x="31.3575" y="169.327" width="71.9509" height="8.53654" transform="rotate(-30 31.3575 169.327)" fill="url(#paint3_linear_17_2)"/>
<!-- </g> -->
<!-- <g opacity="0.5"> -->
<rect x="582.543" y="59.0223" width="270.73" height="360.974" rx="24.3901" transform="rotate(30 582.543 59.0223)" fill="#454444"/>
<rect x="513.542" y="234.633" width="149.999" height="14.6341" rx="7.31704" transform="rotate(30 513.542 234.633)" fill="#3D3D3D"/>
<path d="M419.739 341.007L654.198 476.372L648.711 485.877C641.976 497.543 627.059 501.54 615.393 494.805L423.179 383.83C411.513 377.095 407.516 362.178 414.251 350.512L419.739 341.007Z" fill="url(#paint4_linear_17_2)"/>
<rect x="498.908" y="259.98" width="96.341" height="14.6341" rx="7.31704" transform="rotate(30 498.908 259.98)" fill="#3D3D3D"/>
<circle cx="553.343" cy="213.256" r="23.7804" transform="rotate(30 553.343 213.256)" fill="#3D3D3D"/>
<rect x="613.171" y="76.7051" width="71.9509" height="8.53654" transform="rotate(30 613.171 76.7051)" fill="url(#paint5_linear_17_2)"/>
<path d="M610.603 129.918L610.109 130.773L618.234 135.464L617.061 137.495L606.263 131.261L610.214 124.419L620.99 130.641L619.817 132.672L611.714 127.993L611.22 128.849L617.848 132.676L617.231 133.745L610.603 129.918ZM621.542 130.96L632.661 137.379L631.488 139.41L620.37 132.991L621.542 130.96ZM624.673 135.29L627.345 136.833L624.488 141.783L621.815 140.24L624.673 135.29ZM634.222 141.43L641.748 145.776L640.576 147.807L633.049 143.462L634.222 141.43ZM642.813 143.24L645.486 144.783L641.535 151.625L638.863 150.082L642.813 143.24ZM633.298 137.747L635.971 139.29L632.021 146.132L629.348 144.589L633.298 137.747ZM603.056 144.421L603.179 135.369L606.194 137.109L605.75 145.334L604.722 144.769L611.433 140.134L614.661 141.998L614.002 150.127L612.999 149.519L619.9 145.022L622.872 146.738L615.137 151.395L611.523 149.309L611.9 141.843L612.947 142.448L606.67 146.507L603.056 144.421ZM624.94 157.34C623.386 156.443 622.214 155.586 621.422 154.768C620.635 153.942 620.178 153.137 620.052 152.351C619.937 151.563 620.11 150.769 620.571 149.971C621.032 149.173 621.63 148.63 622.367 148.342C623.114 148.052 624.04 148.045 625.144 148.321C626.253 148.59 627.584 149.174 629.137 150.071C630.691 150.968 631.862 151.829 632.649 152.654C633.441 153.472 633.894 154.276 634.009 155.064C634.135 155.85 633.968 156.642 633.507 157.44C633.046 158.238 632.442 158.783 631.694 159.073C630.958 159.361 630.036 159.37 628.927 159.101C627.823 158.824 626.494 158.237 624.94 157.34ZM626.113 155.309C626.847 155.733 627.506 156.056 628.09 156.28C628.678 156.495 629.184 156.574 629.608 156.514C630.036 156.448 630.373 156.201 630.62 155.773C630.867 155.346 630.91 154.933 630.75 154.537C630.593 154.133 630.273 153.734 629.787 153.34C629.306 152.938 628.699 152.526 627.965 152.102C627.231 151.678 626.559 151.352 625.949 151.124C625.351 150.892 624.827 150.804 624.378 150.858C623.94 150.909 623.597 151.148 623.35 151.576C623.104 152.004 623.065 152.424 623.236 152.836C623.418 153.245 623.757 153.654 624.252 154.064C624.759 154.47 625.379 154.885 626.113 155.309ZM632.495 161.417L636.445 154.575L644.709 159.346C645.358 159.72 645.895 160.131 646.322 160.577C646.76 161.02 647.03 161.498 647.132 162.013C647.241 162.532 647.124 163.088 646.783 163.679C646.557 164.071 646.298 164.354 646.007 164.529C645.717 164.703 645.405 164.789 645.074 164.788C644.742 164.786 644.397 164.725 644.039 164.604C643.682 164.483 643.324 164.329 642.967 164.142L642.273 163.541C643.117 164.038 643.748 164.45 644.167 164.778C644.594 165.109 644.846 165.412 644.926 165.686C645.016 165.957 644.971 166.249 644.79 166.563L643.945 168.028L641.272 166.484L641.932 165.34C642.056 165.127 642.106 164.942 642.082 164.785C642.069 164.626 641.936 164.445 641.683 164.242C641.437 164.042 641.029 163.778 640.459 163.449L636.278 161.036L635.167 162.96L632.495 161.417ZM637.309 159.25L642.901 162.478C643.114 162.602 643.313 162.669 643.497 162.68C643.688 162.695 643.841 162.603 643.956 162.403C644.063 162.218 644.06 162.05 643.947 161.9C643.846 161.746 643.688 161.608 643.475 161.484L637.883 158.256L637.309 159.25ZM651.866 163.478L649.088 168.289L655.321 171.887L654.148 173.919L645.243 168.777L649.193 161.935L651.866 163.478ZM666.548 171.955C667.51 172.51 668.252 173.062 668.772 173.609C669.292 174.157 669.638 174.694 669.809 175.22C669.98 175.747 670.018 176.258 669.921 176.753C669.837 177.246 669.665 177.717 669.405 178.166C669.146 178.615 668.815 178.999 668.413 179.317C668.014 179.629 667.533 179.836 666.97 179.939C666.415 180.046 665.773 180.013 665.046 179.84C664.326 179.671 663.51 179.324 662.598 178.797L654.9 174.353L658.851 167.511L666.548 171.955ZM658.808 173.758L663.725 176.597C664.125 176.828 664.477 176.998 664.784 177.109C665.095 177.212 665.363 177.258 665.589 177.245C665.822 177.237 666.019 177.175 666.181 177.06C666.354 176.941 666.502 176.775 666.626 176.561C666.749 176.347 666.817 176.139 666.829 175.937C666.852 175.732 666.809 175.527 666.7 175.321C666.598 175.119 666.422 174.914 666.173 174.703C665.928 174.486 665.606 174.262 665.207 174.031L660.289 171.192L658.808 173.758Z" fill="url(#paint6_linear_17_2)"/>
<path d="M605.003 123.121L591.485 126.481L595.692 139.248" stroke="url(#paint7_linear_17_2)" stroke-width="4.29723"/>
<!-- </g> -->
<rect x="251.568" width="309.839" height="413.119" rx="27.9134" fill="#454444"/>
<path d="M321.759 63.8031V65.1554H334.606V68.3671H317.533V57.5487H334.572V60.7604H321.759V62.1127H332.24V63.8031H321.759ZM335.445 57.5487H353.026V60.7604H335.445V57.5487ZM342.123 60.5406H346.348V68.3671H342.123V60.5406ZM357.651 61.2844H369.551V64.4962H357.651V61.2844ZM369.078 57.5487H373.304V68.3671H369.078V57.5487ZM354.033 57.5487H358.259V68.3671H354.033V57.5487ZM322.74 86.3671L316.688 75.5487H321.455L326.56 85.6065L324.954 85.6403L329.738 75.5487H334.843L339.627 85.6403L338.021 85.6065L343.126 75.5487H347.825L341.841 86.3671H336.128L331.462 77.2559H333.119L328.453 86.3671H322.74ZM357.537 86.7052C355.08 86.7052 353.102 86.4911 351.603 86.0629C350.105 85.6234 349.012 84.981 348.324 84.1358C347.648 83.2794 347.31 82.2201 347.31 80.9579C347.31 79.6957 347.648 78.6421 348.324 77.7969C349.012 76.9404 350.105 76.2981 351.603 75.8698C353.102 75.4303 355.08 75.2106 357.537 75.2106C359.993 75.2106 361.971 75.4303 363.47 75.8698C364.969 76.2981 366.056 76.9404 366.732 77.7969C367.42 78.6421 367.764 79.6957 367.764 80.9579C367.764 82.2201 367.42 83.2794 366.732 84.1358C366.056 84.981 364.969 85.6234 363.47 86.0629C361.971 86.4911 359.993 86.7052 357.537 86.7052ZM357.537 83.4935C358.697 83.4935 359.7 83.4259 360.546 83.2906C361.391 83.1441 362.044 82.8906 362.506 82.53C362.969 82.1581 363.2 81.6341 363.2 80.9579C363.2 80.2817 362.969 79.7634 362.506 79.4027C362.044 79.0309 361.391 78.7773 360.546 78.6421C359.7 78.4956 358.697 78.4223 357.537 78.4223C356.376 78.4223 355.356 78.4956 354.477 78.6421C353.609 78.7773 352.928 79.0309 352.432 79.4027C351.947 79.7634 351.705 80.2817 351.705 80.9579C351.705 81.6341 351.947 82.1581 352.432 82.53C352.928 82.8906 353.609 83.1441 354.477 83.2906C355.356 83.4259 356.376 83.4935 357.537 83.4935ZM369.286 86.3671V75.5487H382.353C383.378 75.5487 384.297 75.667 385.108 75.9036C385.931 76.129 386.579 76.5122 387.052 77.0531C387.537 77.594 387.779 78.3322 387.779 79.2675C387.779 79.8873 387.666 80.4001 387.441 80.8058C387.216 81.2115 386.906 81.527 386.511 81.7524C386.117 81.9778 385.666 82.1412 385.159 82.2426C384.652 82.344 384.122 82.406 383.57 82.4285L382.336 82.1919C383.677 82.2032 384.708 82.2595 385.429 82.3609C386.162 82.4623 386.669 82.6483 386.951 82.9187C387.244 83.1779 387.39 83.5555 387.39 84.0513V86.3671H383.164V84.5584C383.164 84.2203 383.097 83.9668 382.962 83.7978C382.838 83.6174 382.556 83.4935 382.116 83.4259C381.688 83.3583 381.023 83.3244 380.122 83.3244H373.512V86.3671H369.286ZM373.512 80.5015H382.353C382.691 80.5015 382.973 80.4451 383.198 80.3325C383.435 80.2198 383.553 80.0056 383.553 79.6901C383.553 79.3971 383.435 79.1999 383.198 79.0985C382.973 78.9858 382.691 78.9294 382.353 78.9294H373.512V80.5015ZM393.669 75.5487V83.1554H403.524V86.3671H389.443V75.5487H393.669ZM416.884 75.5487C418.405 75.5487 419.662 75.6952 420.653 75.9882C421.645 76.2812 422.423 76.6812 422.986 77.1883C423.55 77.6955 423.944 78.2758 424.169 78.9294C424.406 79.5718 424.524 80.2479 424.524 80.9579C424.524 81.6679 424.395 82.3497 424.136 83.0033C423.876 83.6456 423.448 84.2203 422.851 84.7275C422.265 85.2346 421.482 85.6346 420.501 85.9276C419.532 86.2206 418.326 86.3671 416.884 86.3671H404.713V75.5487H416.884ZM408.939 82.9864H416.715C417.346 82.9864 417.881 82.9469 418.321 82.868C418.76 82.7779 419.11 82.6483 419.369 82.4792C419.639 82.3102 419.831 82.1017 419.943 81.8538C420.067 81.5946 420.129 81.296 420.129 80.9579C420.129 80.6198 420.067 80.3268 419.943 80.0789C419.831 79.8197 419.639 79.6056 419.369 79.4366C419.11 79.2675 418.76 79.1436 418.321 79.0647C417.881 78.9745 417.346 78.9294 416.715 78.9294H408.939V82.9864Z" fill="url(#paint8_linear_17_2)"/>
<path d="M310.466 59.2707L296.736 72.5103L310.466 84.7692" stroke="url(#paint9_linear_17_2)" stroke-width="5.88426"/>
<rect x="283.669" y="213.538" width="171.668" height="16.7481" rx="8.37403" fill="#3D3D3D"/>
<path d="M251.568 372.644H561.407V385.205C561.407 400.622 548.91 413.119 533.494 413.119H279.482C264.065 413.119 251.568 400.622 251.568 385.205V372.644Z" fill="url(#paint10_linear_17_2)"/>
<rect x="283.669" y="247.034" width="110.258" height="16.7481" rx="8.37403" fill="#3D3D3D"/>
<circle cx="310.884" cy="169.574" r="27.2156" fill="#3D3D3D"/>
<rect x="292.043" width="82.3447" height="9.7697" fill="url(#paint11_linear_17_2)"/>
<defs>
<linearGradient id="paint0_linear_17_2" x1="172.312" y1="484.198" x2="406.771" y2="348.833" gradientUnits="userSpaceOnUse">
<stop stop-color="#4BE8DE"/>
<stop offset="1" stop-color="#27BAB1"/>
</linearGradient>
<linearGradient id="paint1_linear_17_2" x1="76.1285" y1="216.275" x2="145.411" y2="176.275" gradientUnits="userSpaceOnUse">
<stop stop-color="#4BE8DE"/>
<stop offset="1" stop-color="#27BAB1"/>
</linearGradient>
<linearGradient id="paint2_linear_17_2" x1="63.6826" y1="223.366" x2="72.3662" y2="218.353" gradientUnits="userSpaceOnUse">
<stop stop-color="#4BE8DE"/>
<stop offset="1" stop-color="#27BAB1"/>
</linearGradient>
<linearGradient id="paint3_linear_17_2" x1="31.3575" y1="173.564" x2="103.308" y2="173.564" gradientUnits="userSpaceOnUse">
<stop stop-color="#4BE8DE"/>
<stop offset="1" stop-color="#27BAB1"/>
</linearGradient>
<linearGradient id="paint4_linear_17_2" x1="410.962" y1="356.21" x2="645.421" y2="491.576" gradientUnits="userSpaceOnUse">
<stop stop-color="#E8964B"/>
<stop offset="1" stop-color="#E77F44"/>
</linearGradient>
<linearGradient id="paint5_linear_17_2" x1="613.171" y1="80.9426" x2="685.122" y2="80.9426" gradientUnits="userSpaceOnUse">
<stop stop-color="#E8964B"/>
<stop offset="1" stop-color="#E77F44"/>
</linearGradient>
<linearGradient id="paint6_linear_17_2" x1="604.062" y1="133.346" x2="673.344" y2="173.346" gradientUnits="userSpaceOnUse">
<stop stop-color="#E8964B"/>
<stop offset="1" stop-color="#E77F44"/>
</linearGradient>
<linearGradient id="paint7_linear_17_2" x1="591.698" y1="126.113" x2="600.381" y2="131.127" gradientUnits="userSpaceOnUse">
<stop stop-color="#E8964B"/>
<stop offset="1" stop-color="#E77F44"/>
</linearGradient>
<linearGradient id="paint8_linear_17_2" x1="316.35" y1="72.2371" x2="426.35" y2="72.2371" gradientUnits="userSpaceOnUse">
<stop stop-color="#AA6DF9"/>
<stop offset="1" stop-color="#B784F8"/>
</linearGradient>
<linearGradient id="paint9_linear_17_2" x1="296.736" y1="71.9278" x2="310.466" y2="71.9278" gradientUnits="userSpaceOnUse">
<stop stop-color="#AA6DF9"/>
<stop offset="1" stop-color="#B784F8"/>
</linearGradient>
<linearGradient id="paint10_linear_17_2" x1="251.568" y1="392.736" x2="561.407" y2="392.735" gradientUnits="userSpaceOnUse">
<stop stop-color="#AA6DF9"/>
<stop offset="1" stop-color="#B784F8"/>
</linearGradient>
<linearGradient id="paint11_linear_17_2" x1="292.043" y1="4.84957" x2="374.387" y2="4.84956" gradientUnits="userSpaceOnUse">
<stop stop-color="#AA6DF9"/>
<stop offset="1" stop-color="#B784F8"/>
</linearGradient>
</defs>
</svg>
