<svg width="416" height="449" viewBox="0 0 416 449" fill="none" xmlns="http://www.w3.org/2000/svg">
<g opacity="0.5">
<rect x="0.72995" y="136.01" width="270.73" height="360.974" rx="24.3901" transform="rotate(-30 0.72995 136.01)" fill="#454444"/>
<rect x="118.313" y="283.572" width="149.999" height="14.6341" rx="7.31704" transform="rotate(-30 118.313 283.572)" fill="#3D3D3D"/>
<path d="M163.534 417.995L397.994 282.629L403.481 292.135C410.216 303.8 406.22 318.717 394.554 325.452L202.339 436.427C190.674 443.162 175.757 439.165 169.022 427.5L163.534 417.995Z" fill="url(#paint0_linear_1_57)"/>
<rect x="132.947" y="308.919" width="96.341" height="14.6341" rx="7.31704" transform="rotate(-30 132.947 308.919)" fill="#3D3D3D"/>
<path d="M76.43 157.896L76.9238 158.751L85.0489 154.06L86.2216 156.092L75.4238 162.326L71.4735 155.484L82.2499 149.262L83.4226 151.293L75.319 155.972L75.8127 156.827L82.4411 153L83.0583 154.069L76.43 157.896ZM82.8021 148.943L93.9206 142.524L95.0933 144.555L83.9748 150.974L82.8021 148.943ZM88.1175 148.397L90.7902 146.854L93.648 151.804L90.9753 153.347L88.1175 148.397ZM98.2098 143.198L105.736 138.852L106.909 140.884L99.3826 145.229L98.2098 143.198ZM104.073 136.662L106.745 135.119L110.696 141.962L108.023 143.505L104.073 136.662ZM94.5579 142.156L97.2306 140.613L101.181 147.455L98.5082 148.998L94.5579 142.156ZM85.2166 171.683L77.4389 167.051L80.4538 165.31L87.355 169.807L86.3517 170.415L85.6923 162.286L88.921 160.421L95.6314 165.057L94.6034 165.622L94.1595 157.397L97.1316 155.681L97.2973 164.708L93.6838 166.795L87.4062 162.736L88.4539 162.131L88.8301 169.597L85.2166 171.683ZM107.347 159.191C105.794 160.088 104.465 160.675 103.36 160.951C102.252 161.22 101.326 161.213 100.583 160.93C99.8424 160.635 99.2418 160.089 98.7809 159.29C98.32 158.492 98.1491 157.702 98.2681 156.921C98.3901 156.128 98.8469 155.323 99.6385 154.505C100.426 153.679 101.597 152.818 103.15 151.921C104.704 151.024 106.035 150.441 107.143 150.172C108.248 149.895 109.17 149.904 109.91 150.199C110.654 150.483 111.256 151.023 111.717 151.822C112.178 152.62 112.347 153.415 112.225 154.208C112.106 154.99 111.653 155.793 110.865 156.618C110.074 157.436 108.901 158.294 107.347 159.191ZM106.175 157.16C106.909 156.736 107.518 156.327 108.004 155.933C108.485 155.531 108.805 155.132 108.966 154.736C109.122 154.332 109.077 153.916 108.83 153.488C108.583 153.061 108.248 152.817 107.824 152.758C107.396 152.691 106.89 152.77 106.306 152.993C105.718 153.209 105.057 153.529 104.323 153.952C103.589 154.376 102.971 154.795 102.468 155.209C101.969 155.611 101.63 156.02 101.452 156.436C101.278 156.842 101.314 157.258 101.561 157.685C101.807 158.113 102.152 158.356 102.594 158.414C103.04 158.461 103.563 158.373 104.166 158.149C104.771 157.913 105.441 157.583 106.175 157.16ZM114.655 154.687L110.705 147.845L118.969 143.073C119.617 142.699 120.241 142.438 120.841 142.292C121.444 142.134 121.993 142.14 122.49 142.309C122.994 142.474 123.417 142.852 123.758 143.444C123.985 143.836 124.101 144.201 124.106 144.54C124.112 144.879 124.031 145.192 123.864 145.479C123.697 145.765 123.471 146.033 123.188 146.282C122.904 146.532 122.592 146.764 122.251 146.98L121.384 147.281C122.236 146.799 122.909 146.458 123.402 146.258C123.902 146.055 124.291 145.988 124.568 146.056C124.848 146.113 125.078 146.298 125.259 146.612L126.105 148.076L123.432 149.619L122.772 148.475C122.648 148.262 122.513 148.126 122.366 148.068C122.222 148 121.998 148.024 121.695 148.142C121.4 148.255 120.967 148.477 120.397 148.806L116.217 151.219L117.328 153.144L114.655 154.687ZM115.186 149.434L120.777 146.206C120.991 146.082 121.149 145.944 121.25 145.79C121.359 145.633 121.355 145.454 121.24 145.254C121.133 145.069 120.986 144.988 120.8 145.01C120.616 145.021 120.417 145.088 120.203 145.212L114.612 148.44L115.186 149.434ZM126.125 138.941L128.903 143.752L135.136 140.154L136.309 142.185L127.403 147.327L123.453 140.485L126.125 138.941ZM140.808 130.465C141.77 129.909 142.618 129.543 143.352 129.366C144.087 129.189 144.725 129.158 145.266 129.273C145.808 129.388 146.269 129.611 146.65 129.942C147.034 130.262 147.356 130.647 147.615 131.096C147.875 131.545 148.042 132.023 148.116 132.531C148.187 133.032 148.126 133.552 147.933 134.091C147.748 134.626 147.399 135.165 146.886 135.708C146.38 136.247 145.671 136.78 144.758 137.307L137.061 141.751L133.11 134.909L140.808 130.465ZM138.499 138.07L143.417 135.23C143.816 135 144.14 134.779 144.389 134.569C144.634 134.352 144.808 134.142 144.91 133.94C145.019 133.735 145.065 133.533 145.045 133.335C145.029 133.126 144.959 132.914 144.836 132.701C144.712 132.487 144.566 132.324 144.397 132.212C144.231 132.09 144.032 132.024 143.799 132.016C143.573 132.004 143.307 132.053 143.001 132.164C142.69 132.267 142.335 132.434 141.935 132.664L137.018 135.504L138.499 138.07Z" fill="url(#paint1_linear_1_57)"/>
<path d="M67.7444 159.348L63.8953 172.734L77.0551 175.474" stroke="url(#paint2_linear_1_57)" stroke-width="4.29723"/>
<circle cx="119.7" cy="238.414" r="23.7804" transform="rotate(-30 119.7 238.414)" fill="#3D3D3D"/>
<rect x="31.3575" y="118.327" width="71.9509" height="8.53654" transform="rotate(-30 31.3575 118.327)" fill="url(#paint3_linear_1_57)"/>
</g>
<defs>
<linearGradient id="paint0_linear_1_57" x1="172.312" y1="433.198" x2="406.771" y2="297.833" gradientUnits="userSpaceOnUse">
<stop stop-color="#4BE8DE"/>
<stop offset="1" stop-color="#27BAB1"/>
</linearGradient>
<linearGradient id="paint1_linear_1_57" x1="76.1285" y1="165.275" x2="145.411" y2="125.275" gradientUnits="userSpaceOnUse">
<stop stop-color="#4BE8DE"/>
<stop offset="1" stop-color="#27BAB1"/>
</linearGradient>
<linearGradient id="paint2_linear_1_57" x1="63.6826" y1="172.366" x2="72.3662" y2="167.353" gradientUnits="userSpaceOnUse">
<stop stop-color="#4BE8DE"/>
<stop offset="1" stop-color="#27BAB1"/>
</linearGradient>
<linearGradient id="paint3_linear_1_57" x1="31.3575" y1="122.564" x2="103.308" y2="122.564" gradientUnits="userSpaceOnUse">
<stop stop-color="#4BE8DE"/>
<stop offset="1" stop-color="#27BAB1"/>
</linearGradient>
</defs>
</svg>
