<svg width="311" height="414" viewBox="0 0 311 414" fill="none" xmlns="http://www.w3.org/2000/svg">
<rect x="0.568237" width="309.839" height="413.119" rx="27.9134" fill="#454444"/>
<path d="M70.7593 63.8031V65.1554H83.6062V68.3671H66.5333V57.5487H83.5724V60.7604H70.7593V62.1127H81.2397V63.8031H70.7593ZM84.4455 57.5487H102.026V60.7604H84.4455V57.5487ZM91.1225 60.5406H95.3485V68.3671H91.1225V60.5406ZM106.651 61.2844H118.551V64.4962H106.651V61.2844ZM118.078 57.5487H122.304V68.3671H118.078V57.5487ZM103.033 57.5487H107.259V68.3671H103.033V57.5487ZM71.7397 86.3671L65.6881 75.5487H70.455L75.56 85.6065L73.9541 85.6403L78.7379 75.5487H83.8429L88.6267 85.6403L87.0208 85.6065L92.1258 75.5487H96.8251L90.8411 86.3671H85.1276L80.4621 77.2559H82.1187L77.4532 86.3671H71.7397ZM106.537 86.7052C104.08 86.7052 102.102 86.4911 100.603 86.0629C99.1047 85.6234 98.0116 84.981 97.3241 84.1358C96.648 83.2794 96.3099 82.2201 96.3099 80.9579C96.3099 79.6957 96.648 78.6421 97.3241 77.7969C98.0116 76.9404 99.1047 76.2981 100.603 75.8698C102.102 75.4303 104.08 75.2106 106.537 75.2106C108.993 75.2106 110.971 75.4303 112.47 75.8698C113.969 76.2981 115.056 76.9404 115.732 77.7969C116.42 78.6421 116.764 79.6957 116.764 80.9579C116.764 82.2201 116.42 83.2794 115.732 84.1358C115.056 84.981 113.969 85.6234 112.47 86.0629C110.971 86.4911 108.993 86.7052 106.537 86.7052ZM106.537 83.4935C107.697 83.4935 108.7 83.4259 109.546 83.2906C110.391 83.1441 111.044 82.8906 111.506 82.53C111.969 82.1581 112.2 81.6341 112.2 80.9579C112.2 80.2817 111.969 79.7634 111.506 79.4027C111.044 79.0309 110.391 78.7773 109.546 78.6421C108.7 78.4956 107.697 78.4223 106.537 78.4223C105.376 78.4223 104.356 78.4956 103.477 78.6421C102.609 78.7773 101.928 79.0309 101.432 79.4027C100.947 79.7634 100.705 80.2817 100.705 80.9579C100.705 81.6341 100.947 82.1581 101.432 82.53C101.928 82.8906 102.609 83.1441 103.477 83.2906C104.356 83.4259 105.376 83.4935 106.537 83.4935ZM118.286 86.3671V75.5487H131.353C132.378 75.5487 133.297 75.667 134.108 75.9036C134.931 76.129 135.579 76.5122 136.052 77.0531C136.537 77.594 136.779 78.3322 136.779 79.2675C136.779 79.8873 136.666 80.4001 136.441 80.8058C136.216 81.2115 135.906 81.527 135.511 81.7524C135.117 81.9778 134.666 82.1412 134.159 82.2426C133.652 82.344 133.122 82.406 132.57 82.4285L131.336 82.1919C132.677 82.2032 133.708 82.2595 134.429 82.3609C135.162 82.4623 135.669 82.6483 135.951 82.9187C136.244 83.1779 136.39 83.5555 136.39 84.0513V86.3671H132.164V84.5584C132.164 84.2203 132.097 83.9668 131.962 83.7978C131.838 83.6174 131.556 83.4935 131.116 83.4259C130.688 83.3583 130.023 83.3244 129.122 83.3244H122.512V86.3671H118.286ZM122.512 80.5015H131.353C131.691 80.5015 131.973 80.4451 132.198 80.3325C132.435 80.2198 132.553 80.0056 132.553 79.6901C132.553 79.3971 132.435 79.1999 132.198 79.0985C131.973 78.9858 131.691 78.9294 131.353 78.9294H122.512V80.5015ZM142.669 75.5487V83.1554H152.524V86.3671H138.443V75.5487H142.669ZM165.884 75.5487C167.405 75.5487 168.662 75.6952 169.653 75.9882C170.645 76.2812 171.423 76.6812 171.986 77.1883C172.55 77.6955 172.944 78.2758 173.169 78.9294C173.406 79.5718 173.524 80.2479 173.524 80.9579C173.524 81.6679 173.395 82.3497 173.136 83.0033C172.876 83.6456 172.448 84.2203 171.851 84.7275C171.265 85.2346 170.482 85.6346 169.501 85.9276C168.532 86.2206 167.326 86.3671 165.884 86.3671H153.713V75.5487H165.884ZM157.939 82.9864H165.715C166.346 82.9864 166.881 82.9469 167.321 82.868C167.76 82.7779 168.11 82.6483 168.369 82.4792C168.639 82.3102 168.831 82.1017 168.943 81.8538C169.067 81.5946 169.129 81.296 169.129 80.9579C169.129 80.6198 169.067 80.3268 168.943 80.0789C168.831 79.8197 168.639 79.6056 168.369 79.4366C168.11 79.2675 167.76 79.1436 167.321 79.0647C166.881 78.9745 166.346 78.9294 165.715 78.9294H157.939V82.9864Z" fill="url(#paint0_linear_1_56)"/>
<path d="M59.4658 59.2707L45.7358 72.5103L59.4658 84.7692" stroke="url(#paint1_linear_1_56)" stroke-width="5.88426"/>
<rect x="32.6686" y="213.538" width="171.668" height="16.7481" rx="8.37403" fill="#3D3D3D"/>
<path d="M0.568161 372.644H310.407V385.205C310.407 400.622 297.91 413.119 282.494 413.119H28.4816C13.0655 413.119 0.568161 400.622 0.568161 385.205V372.644Z" fill="url(#paint2_linear_1_56)"/>
<rect x="32.6686" y="247.034" width="110.258" height="16.7481" rx="8.37403" fill="#3D3D3D"/>
<circle cx="59.8842" cy="169.574" r="27.2156" fill="#3D3D3D"/>
<rect x="41.0427" width="82.3447" height="9.7697" fill="url(#paint3_linear_1_56)"/>
<defs>
<linearGradient id="paint0_linear_1_56" x1="65.3501" y1="72.2371" x2="175.35" y2="72.2371" gradientUnits="userSpaceOnUse">
<stop stop-color="#AA6DF9"/>
<stop offset="1" stop-color="#B784F8"/>
</linearGradient>
<linearGradient id="paint1_linear_1_56" x1="45.7358" y1="71.9278" x2="59.4658" y2="71.9278" gradientUnits="userSpaceOnUse">
<stop stop-color="#AA6DF9"/>
<stop offset="1" stop-color="#B784F8"/>
</linearGradient>
<linearGradient id="paint2_linear_1_56" x1="0.568159" y1="392.736" x2="310.407" y2="392.735" gradientUnits="userSpaceOnUse">
<stop stop-color="#AA6DF9"/>
<stop offset="1" stop-color="#B784F8"/>
</linearGradient>
<linearGradient id="paint3_linear_1_56" x1="41.0427" y1="4.84957" x2="123.387" y2="4.84956" gradientUnits="userSpaceOnUse">
<stop stop-color="#AA6DF9"/>
<stop offset="1" stop-color="#B784F8"/>
</linearGradient>
</defs>
</svg>
