<svg width="116" height="32" viewBox="0 0 116 32" fill="none" xmlns="http://www.w3.org/2000/svg">
<path d="M25.6496 8.77857V9.94855H36.7645V12.7273H21.9934V3.3674H36.7352V6.14611H25.6496V7.31609H34.717V8.77857H25.6496ZM37.4906 3.3674H52.7004V6.14611H37.4906V3.3674ZM43.2674 5.95598H46.9236V12.7273H43.2674V5.95598ZM56.7018 6.59948H66.9977V9.37819H56.7018V6.59948ZM66.5882 3.3674H70.2444V12.7273H66.5882V3.3674ZM53.5721 3.3674H57.2283V12.7273H53.5721V3.3674ZM26.4979 28.7273L21.2622 19.3674H25.3864L29.8031 28.0691L28.4137 28.0984L32.5525 19.3674H36.9692L41.108 28.0984L39.7187 28.0691L44.1354 19.3674H48.2011L43.0239 28.7273H38.0807L34.0443 20.8445H35.4775L31.441 28.7273H26.4979ZM56.6033 29.0198C54.4779 29.0198 52.7668 28.8345 51.47 28.464C50.1733 28.0838 49.2276 27.528 48.6328 26.7968C48.0478 26.0558 47.7553 25.1393 47.7553 24.0473C47.7553 22.9553 48.0478 22.0437 48.6328 21.3125C49.2276 20.5715 50.1733 20.0158 51.47 19.6453C52.7668 19.265 54.4779 19.0749 56.6033 19.0749C58.7288 19.0749 60.4399 19.265 61.7366 19.6453C63.0334 20.0158 63.9742 20.5715 64.5592 21.3125C65.154 22.0437 65.4513 22.9553 65.4513 24.0473C65.4513 25.1393 65.154 26.0558 64.5592 26.7968C63.9742 27.528 63.0334 28.0838 61.7366 28.464C60.4399 28.8345 58.7288 29.0198 56.6033 29.0198ZM56.6033 26.241C57.6076 26.241 58.4753 26.1826 59.2066 26.0656C59.9378 25.9388 60.5033 25.7194 60.903 25.4074C61.3028 25.0857 61.5027 24.6323 61.5027 24.0473C61.5027 23.4623 61.3028 23.0138 60.903 22.7018C60.5033 22.3801 59.9378 22.1607 59.2066 22.0437C58.4753 21.917 57.6076 21.8536 56.6033 21.8536C55.5991 21.8536 54.7167 21.917 53.9563 22.0437C53.2055 22.1607 52.6157 22.3801 52.1867 22.7018C51.7674 23.0138 51.5578 23.4623 51.5578 24.0473C51.5578 24.6323 51.7674 25.0857 52.1867 25.4074C52.6157 25.7194 53.2055 25.9388 53.9563 26.0656C54.7167 26.1826 55.5991 26.241 56.6033 26.241ZM66.7687 28.7273V19.3674H78.0737C78.9609 19.3674 79.7555 19.4698 80.4575 19.6745C81.1693 19.8695 81.7299 20.201 82.1394 20.669C82.5586 21.137 82.7682 21.7756 82.7682 22.5849C82.7682 23.1211 82.6707 23.5647 82.4757 23.9157C82.2808 24.2667 82.0126 24.5397 81.6714 24.7347C81.3301 24.9297 80.9401 25.0711 80.5014 25.1588C80.0627 25.2466 79.6044 25.3002 79.1267 25.3197L78.0591 25.1149C79.2193 25.1247 80.1114 25.1734 80.7354 25.2612C81.3691 25.3489 81.8079 25.5098 82.0516 25.7438C82.3051 25.9681 82.4319 26.2947 82.4319 26.7237V28.7273H78.7757V27.1624C78.7757 26.8699 78.7172 26.6505 78.6002 26.5043C78.4929 26.3483 78.2492 26.241 77.8689 26.1826C77.4984 26.1241 76.9232 26.0948 76.1432 26.0948H70.4249V28.7273H66.7687ZM70.4249 23.6525H78.0737C78.3662 23.6525 78.6099 23.6037 78.8049 23.5062C79.0097 23.4087 79.112 23.2235 79.112 22.9505C79.112 22.697 79.0097 22.5264 78.8049 22.4386C78.6099 22.3411 78.3662 22.2924 78.0737 22.2924H70.4249V23.6525ZM87.8638 19.3674V25.9486H96.3901V28.7273H84.2076V19.3674H87.8638ZM107.949 19.3674C109.265 19.3674 110.352 19.4941 111.21 19.7476C112.068 20.0011 112.741 20.3473 113.228 20.786C113.716 21.2247 114.057 21.7269 114.252 22.2924C114.457 22.8481 114.559 23.4331 114.559 24.0473C114.559 24.6616 114.447 25.2514 114.223 25.8169C113.999 26.3727 113.628 26.8699 113.111 27.3087C112.605 27.7474 111.927 28.0935 111.079 28.347C110.24 28.6005 109.197 28.7273 107.949 28.7273H97.4191V19.3674H107.949ZM101.075 25.8023H107.803C108.349 25.8023 108.812 25.7682 109.192 25.6999C109.572 25.6219 109.875 25.5098 110.099 25.3636C110.333 25.2173 110.499 25.0369 110.596 24.8224C110.703 24.5982 110.757 24.3398 110.757 24.0473C110.757 23.7548 110.703 23.5013 110.596 23.2868C110.499 23.0626 110.333 22.8773 110.099 22.7311C109.875 22.5849 109.572 22.4776 109.192 22.4094C108.812 22.3314 108.349 22.2924 107.803 22.2924H101.075V25.8023Z" fill="#B67DFF"/>
<path d="M15.8788 4.9697L4 16.4242L15.8788 27.0303" stroke="#B67DFF" stroke-width="5.09091"/>
</svg>
